# xmcd CD database file
#
# Track frame offsets:
#	150
#	23570
#	50867
#	77262
#	100085
#	123730
#	146565
#	173747
#	198420
#	212000
#	233117
#	266210
#	298325
#	319115
#
# Disc length: 4495 seconds
#
# Revision: 0
# Processed by: cddbd v1.4PL0 Copyright (c) Steve Scherf et al.
# Submitted via: CDex 1.50beta10
#
DISCID=ce118d0e
DTITLE=Vaious - Woman's World
DYEAR=1994
DGENRE=Jazz
TTITLE0=Terri Lyne Carrington_Someone with understanding
TTITLE1=Jane Bunnett_Yo siempre oddara
TTITLE2=Aziza Mustafa Zadeh_Marriage Suite
TTITLE3=Kelli Sae_Runaway
TTITLE4=Leni Stern_Bubbles
TTITLE5=Anenette Peacock_Disparate X's
TTITLE6=Barbara Dennerlein_Top secret
TTITLE7=Cassandra Wilson_Love phases dimensions
TTITLE8=Carole Kaye_Greenapple quickstep
TTITLE9=Soledad Brave_Juglar
TTITLE10=Susan Weinert_Mysterious phonecall
TTITLE11=Carol Grey_Don't play it again Sam
TTITLE12=Kenia_There is a place
TTITLE13=Billy Tipton Memorial Saxophone Quartet_Saxhouse
EXTD=YEAR: 1994
EXTT0=
EXTT1=
EXTT2=
EXTT3=
EXTT4=
EXTT5=
EXTT6=
EXTT7=
EXTT8=
EXTT9=
EXTT10=
EXTT11=
EXTT12=
EXTT13=
PLAYORDER=
